<svg xmlns="http://www.w3.org/2000/svg" fill-rule="evenodd" stroke-linejoin="round" stroke-miterlimit="2" clip-rule="evenodd" viewBox="0 0 96 96"><path fill="none" d="M0 0h96v96H0z"/><path d="m28.011 16.404-3.771-5.187a4.466 4.466 0 0 0-6.232-.991l-.001.001a4.462 4.462 0 0 0-1.096 6.088l14.613 21.924a1.5 1.5 0 0 0 2.496-1.664L19.408 14.651a1.46 1.46 0 0 1 .359-1.994l.001-.001a1.464 1.464 0 0 1 2.045.325l3.771 5.187a1.5 1.5 0 0 0 2.427-1.764zm9.219 11.479-4.538-5.123a10.39 10.39 0 0 1-.633-.788l-.229-.315a1.5 1.5 0 0 0-2.427 1.764l.229.315c.255.351.527.689.815 1.013l4.538 5.123a1.5 1.5 0 0 0 2.245-1.989zm34.44-6.643L60.766 36.536a1.501 1.501 0 0 0 2.443 1.742l10.904-15.296a1.5 1.5 0 1 0-2.443-1.742zm-12.366 9.354 5.472-5.837c.288-.307.561-.627.818-.959l8.108-10.451a1.46 1.46 0 0 1 2.012-.287l.003.001c.651.472.8 1.381.333 2.036l-.677.95a1.501 1.501 0 0 0 .351 2.092c.674.48 1.611.323 2.092-.351l.677-.95a4.464 4.464 0 0 0-1.016-6.206l-.002-.002a4.463 4.463 0 0 0-6.144.879l-8.107 10.45c-.2.259-.413.507-.636.746l-5.473 5.837a1.502 1.502 0 0 0 .068 2.121 1.502 1.502 0 0 0 2.121-.069z"/><path d="M57.053 54.904a126.737 126.737 0 0 1 3.32-25.763 1.5 1.5 0 0 0-2.236-1.626c-1.945 1.175-3.914 2.037-5.897 2.573a1.5 1.5 0 0 0 .782 2.896 24.393 24.393 0 0 0 3.725-1.347 129.698 129.698 0 0 0-2.693 23.19 1.5 1.5 0 0 0 2.999.077ZM42.644 30.089c-1.937-.53-3.862-1.384-5.762-2.565a1.5 1.5 0 0 0-2.259 1.584c1.755 8.317 2.5 16.634 2.534 24.951a1.501 1.501 0 0 0 3-.012c-.03-7.472-.624-14.944-1.982-22.416a23.565 23.565 0 0 0 3.677 1.352 1.5 1.5 0 0 0 .792-2.894Z"/><path d="M47.318 22.406c-3.604 0-6.687 3.425-6.687 7.807 0 4.382 3.083 7.808 6.687 7.808 3.603 0 6.686-3.426 6.686-7.808s-3.083-7.807-6.686-7.807zm0 3c2.123 0 3.686 2.225 3.686 4.807 0 2.583-1.563 4.808-3.686 4.808-2.124 0-3.687-2.225-3.687-4.808 0-2.582 1.563-4.807 3.687-4.807zM2 18.981h2a1.5 1.5 0 0 0 0-3H2a1.5 1.5 0 0 0 0 3zM81.953 8.538V30.91a4.499 4.499 0 0 0 4.5 4.5H89a4.5 4.5 0 0 0 4.5-4.5V7.538a4.5 4.5 0 0 0-4.5-4.5h-2.547a1.5 1.5 0 0 0 0 3H89a1.503 1.503 0 0 1 1.5 1.5V30.91a1.5 1.5 0 0 1-1.5 1.5h-2.547a1.5 1.5 0 0 1-1.5-1.5V8.538a1.501 1.501 0 0 0-3 0z"/><path d="M14.047 7.538a4.5 4.5 0 0 0-4.5-4.5H7a4.5 4.5 0 0 0-4.5 4.5V30.91a4.499 4.499 0 0 0 4.5 4.5h2.547a4.499 4.499 0 0 0 4.5-4.5V7.538zm-3 0V30.91a1.5 1.5 0 0 1-1.5 1.5H7a1.503 1.503 0 0 1-1.5-1.5V7.538a1.503 1.503 0 0 1 1.5-1.5h2.547a1.5 1.5 0 0 1 1.5 1.5zM63.39 64.272c-2.116 1.346-4.177 2.823-6.014 4.739a6.957 6.957 0 0 1-6.416 2.002l-.003-.001c-1.78-.36-3.614-.36-5.394.001a6.956 6.956 0 0 1-6.418-2.002 24.631 24.631 0 0 0-.965-.95 1.5 1.5 0 1 0-2.043 2.197c.286.266.567.542.842.829a9.959 9.959 0 0 0 9.18 2.866 10.583 10.583 0 0 1 4.203-.001 9.951 9.951 0 0 0 9.179-2.865c1.665-1.736 3.541-3.064 5.459-4.283a1.501 1.501 0 0 0-1.61-2.532zm-10.074-6.739c5.388-2.623 10.775-4.397 16.162-5.42a1.5 1.5 0 0 0-.559-2.948c-5.639 1.071-11.277 2.926-16.916 5.67a1.501 1.501 0 0 0 1.313 2.698zm-26.301-5.426c4.75.992 9.499 2.548 14.249 4.642a1.5 1.5 0 0 0 1.21-2.745c-4.948-2.182-9.897-3.801-14.846-4.833a1.5 1.5 0 0 0-.613 2.936z"/><path d="M33.798 84.908V61.646a1.5 1.5 0 0 0-3 0v23.262a1.5 1.5 0 0 0 3 0zm0-28.743a7.037 7.037 0 0 0-7.036-7.036h-.004a7.047 7.047 0 0 0-7.013 7.747l2.736 27.445a1.5 1.5 0 0 0 2.985-.298L22.73 56.578a4.048 4.048 0 0 1 4.028-4.449h.004a4.037 4.037 0 0 1 4.036 4.036 1.5 1.5 0 0 0 3 0zm31.85 29.62V56.163a4.034 4.034 0 0 1 4.034-4.034h.003a4.052 4.052 0 0 1 4.03 4.452l-2.72 27.29a1.5 1.5 0 0 0 2.985.298l2.72-27.291a7.052 7.052 0 0 0-7.015-7.749h-.003a7.034 7.034 0 0 0-7.034 7.034v29.622a1.5 1.5 0 0 0 3 0z"/><path d="M35.5 90.146a8.045 8.045 0 0 0-8.045-8.045h-.804a8.045 8.045 0 0 0-8.045 8.045v1.316a1.5 1.5 0 0 0 1.5 1.5H34a1.5 1.5 0 0 0 1.5-1.5v-1.316zm-3.003-.184H21.61a5.044 5.044 0 0 1 5.041-4.861h.804a5.045 5.045 0 0 1 5.042 4.861zm45.733.184a8.045 8.045 0 0 0-8.045-8.045h-.803a8.045 8.045 0 0 0-8.046 8.045v1.316a1.5 1.5 0 0 0 1.5 1.5H76.73a1.5 1.5 0 0 0 1.5-1.5v-1.316zm-3.003-.184H64.34a5.045 5.045 0 0 1 5.042-4.861h.803a5.045 5.045 0 0 1 5.042 4.861z"/><path d="M8.103 92.962h78.151a1.5 1.5 0 0 0 0-3H8.103a1.5 1.5 0 0 0 0 3zm20.009-15.463h4.186a1.5 1.5 0 0 0 0-3h-4.186a1.5 1.5 0 0 0 0 3zm36.036 0h9.139a1.5 1.5 0 0 0 0-3h-9.139a1.5 1.5 0 0 0 0 3zM92 18.981h2a1.5 1.5 0 0 0 0-3h-2a1.5 1.5 0 0 0 0 3zm-79.453 0h70.906a1.501 1.501 0 0 0 0-3H12.547a1.501 1.501 0 0 0 0 3z"/></svg>